<svg xmlns="http://www.w3.org/2000/svg" xml:space="preserve" width="335" viewBox="0 0 335.881 355.809"><g><g><path d="m2850 5093.75-1339.23-471.3 211.62-1754.63 1129.03-620.54 1134.85 628.95 211.55 1754.56L2850 5093.75z" style="fill:#b3b3b3;fill-opacity:1;fill-rule:nonzero;stroke:none" transform="matrix(.13 0 0 -.13 -188.846 636.719)"/><path d="m4064.25 4529.39-1217.38 415.13V2395.54l1020.22 564.62 197.16 1569.23z" style="fill:#af2b2d;fill-opacity:1;fill-rule:nonzero;stroke:none" transform="matrix(.13 0 0 -.13 -188.846 636.719)"/><path d="m1661.05 4521.89 181.34-1569.22 1004.47-557.13v2549.03l-1185.81-422.68z" style="fill:#df2e31;fill-opacity:1;fill-rule:nonzero;stroke:none" transform="matrix(.13 0 0 -.13 -188.846 636.719)"/><path d="m3129.05 3676.7-279.96 584.64-246.46-584.64h526.42zm106.74-245.83h-742.11l-166.02-415.26-308.82-5.71 828.04 1842.06 856.9-1842.06h-286.23l-181.76 420.97z" style="fill:#f2f2f2;fill-opacity:1;fill-rule:nonzero;stroke:none" transform="matrix(.13 0 0 -.13 -188.846 636.719)"/><path d="m2846.87 4851.96 2.21-590.62 279.67-585.09H2847.5l-.63-245 388.9-.38 181.77-421.04 295.49-5.48-866.16 1847.61z" style="fill:#b3b3b3;fill-opacity:1;fill-rule:nonzero;stroke:none" transform="matrix(.13 0 0 -.13 -188.846 636.719)"/></g></g></svg>