<svg xmlns="http://www.w3.org/2000/svg" width="1000" height="942"><g transform="translate(.912 .381)"><svg xmlns="http://www.w3.org/2000/svg" xmlns:xlink="http://www.w3.org/1999/xlink" width="1000" height="942" data-background-color="#ffffff" viewBox="0 0 262 247"><g transform="translate(-.239 -.1)"><svg width="262.478" height="247.2" viewBox="0 0 262.478 247.2"><g><svg width="262.478" height="247.2" viewBox="0 0 395.52 372.498"><g transform="translate(0 273.145)"><svg width="395.52" height="99.354" viewBox="0 0 395.52 99.354"><g><svg width="395.52" height="99.354" viewBox="0 0 395.52 99.354"><g><svg width="395.52" height="99.354" viewBox="0 0 395.52 99.354"><g><svg width="395.52" height="99.354" data-palette-color="#e6b17e" viewBox="3 -35.4 187.88 47.2"><path fill="#e6b17e" d="M15.1 0q-3.65 0-6.38-1.5Q6-3 4.55-5.53 3.1-8.05 3.1-10.95q0-2.5 2.45-2.5T8.1-11.3q.05 3.2 2.1 5 2.05 1.8 4.9 1.8 2.65 0 4.43-1.23 1.77-1.22 1.77-3.52 0-1.75-1-2.88-1-1.12-2.57-1.82-1.58-.7-4.08-1.45-2.8-.8-4.93-1.67-2.12-.88-3.92-2.91Q3-22 3-25.25q0-2.95 1.55-5.25t4.2-3.6q2.65-1.3 5.75-1.3 3.25 0 5.88 1.4 2.62 1.4 4.12 3.67Q26-28.05 26-25.5q0 1.3-.6 1.87-.6.58-1.8.58-1.3 0-1.82-.55-.53-.55-.68-1.65-.1-2.35-1.9-4-1.8-1.65-4.7-1.65-2.85 0-4.67 1.6Q8-27.7 8-25.2q0 1.6.95 2.57.95.98 2.4 1.55 1.45.58 4.55 1.53 2.65.8 4.78 1.82 2.12 1.03 3.85 3.1 1.72 2.08 1.72 5.28 0 2.8-1.45 4.93-1.45 2.12-4 3.27T15.1 0Zm40.85-4q.75.1 1.17.5.43.4.43 1.35 0 .9-.45 1.5t-1.25.6q-2.05 0-3.08-.6-1.02-.6-1.87-2.25Q48.8.5 43.1.5q-5.8 0-8.55-3.53-2.75-3.52-2.75-8.77 0-3.5 1.4-6.45t4.1-4.7q2.7-1.75 6.3-1.75 2.3 0 4.07.9 1.78.9 2.68 2.45l.15-1.25q.2-1.8 2.15-1.8 1.3 0 1.85.57.55.58.45 1.43-.5 3.75-.6 5.65-.15 1.8-.15 4.7v3.3q0 2.6.27 3.6.28 1 1.48 1.15ZM49.3-8.75q.05-2.25.05-6.15 0-2.05-.88-3.35-.87-1.3-2.15-1.9-1.27-.6-2.57-.6-2.25 0-3.83 1.32-1.57 1.33-2.35 3.38-.77 2.05-.77 4.25 0 3.35 1.57 5.82Q39.95-3.5 43.3-3.5q2.65 0 4.3-1.35t1.7-3.9ZM88.2-25.4q4.6 0 6.52 3.15 1.93 3.15 1.93 8.7l-.1 11.6q0 .9-.6 1.42-.61.53-1.7.53-1.1 0-1.75-.55-.65-.55-.65-1.55v-11.45q0-4.35-.88-6.23-.87-1.87-3.17-1.87-2 0-3.08 2.45-1.07 2.45-1.12 6.15V-2.1q0 2-2.35 2-2.55 0-2.55-2.05l.05-8.65v-2.25q0-3.55-1.18-5.98-1.17-2.42-3.27-2.42-3.1 0-4.55 6.85-.4 2.15-.4 6.2v6.55q0 .8-.68 1.27Q68-.1 67.1-.1q-1.1 0-1.78-.45-.67-.45-.67-1.35 0-10.85-.05-17.1-.05-1.2-.28-1.78-.22-.57-.67-.97-.05-.05-.33-.3-.27-.25-.27-.7 0-.95.7-1.55.7-.6 1.55-.6.85 0 1.8 1.35.95 1.25.95 2.9v.7q.85-2.45 2.5-3.88 1.65-1.42 4.05-1.42 4.8 0 6.45 4.95.85-2.45 2.7-3.78 1.85-1.32 4.45-1.32Zm20.19-2.15q-1.55 0-2.55-1.03-1-1.02-1-2.57 0-1.5 1.03-2.5 1.02-1 2.62-1t2.58.95q.97.95.97 2.5t-1.02 2.6q-1.03 1.05-2.63 1.05Zm-.7 27.25q-1.15 0-1.85-.55-.7-.55-.7-1.55l.5-20.3q0-1 .7-1.58.7-.57 1.8-.57t1.83.6q.72.6.72 1.6l-.5 20.3q-.05 1-.72 1.52-.68.53-1.78.53Zm18.5-27.35q-1.55 0-2.63-1.03-1.07-1.02-1.07-2.47 0-1.45 1.05-2.45 1.05-1 2.65-1 1.55 0 2.58.97 1.02.98 1.02 2.48 0 1.55-1.07 2.52-1.08.98-2.53.98Zm-6.75 39.45q-3.35 0-5.47-2.02-2.13-2.03-2.13-5.18 0-1.35.53-1.9.52-.55 1.72-.55 1.1 0 1.7.45.6.45.7 1.45.2 2.05.82 2.93.63.87 1.88.87 1.95 0 2.93-2.2.97-2.2 1.07-6.9.3-11.65.3-21.85 0-.8.65-1.3t1.85-.5q1.15 0 1.78.5.62.5.62 1.4 0 10.45-.3 21.8-.15 6.45-2.32 9.73-2.18 3.27-6.33 3.27ZM148.34.1q-5.9 0-9.63-3.13-3.72-3.12-3.72-9.37 0-3.95 1.57-7 1.58-3.05 4.5-4.75 2.93-1.7 6.93-1.7 3.9 0 6.97 1.65 3.08 1.65 4.8 4.72 1.73 3.08 1.73 7.18 0 6-3.6 9.2-3.6 3.2-9.55 3.2Zm-.1-3.95q3.7 0 6-2.18 2.3-2.17 2.3-6.37 0-2.7-1.03-4.88-1.02-2.17-2.95-3.4-1.92-1.22-4.42-1.22-3.7 0-5.93 2.57-2.22 2.58-2.22 6.88 0 4.4 2.35 6.5 2.35 2.1 5.9 2.1ZM179.13.3q-4.25 0-7.27-1.75-3.02-1.75-4.55-4.7-1.53-2.95-1.53-6.5 0-3.65 1.66-6.63 1.65-2.97 4.65-4.7 3-1.72 6.85-1.72 3.4 0 6.12 1.37 2.72 1.38 4.28 3.88 1.54 2.5 1.54 5.7 0 1.7-.5 2.42-.5.73-2.04.78l-18.06.25q0 1.65 1.06 3.4 1.04 1.75 3.02 2.92 1.98 1.18 4.63 1.18 1.89 0 3.22-.53 1.32-.52 2.13-1.25.79-.72 1.9-1.92.54-.55 1.39-.55.81 0 1.53.62.72.63.72 1.43 0 .65-.44 1.25-1.41 2-3.75 3.52Q183.34.3 179.13.3Zm-8.85-15.1 15.91-.3q.3 0 .42-.18.13-.17.13-.52 0-2.65-2.23-4.33-2.23-1.67-5.57-1.67-2.56 0-4.53 1.2-1.97 1.2-3.05 2.87-1.08 1.68-1.08 2.93Z" class="wordmark-text-0" data-fill-palette-color="primary"/></svg></g></svg></g></svg></g></svg></g><g transform="translate(84.643)"><svg width="226.235" height="226.235" viewBox="0 0 226.235 226.235"><g><svg/></g><g><svg width="226.235" height="226.235" viewBox="0 0 226.235 226.235"><g><path fill="#c56e33" stroke="transparent" d="M0 113.117C0 50.644 50.644 0 113.117 0c62.473 0 113.117 50.644 113.118 113.117 0 62.473-50.644 113.117-113.118 113.118C50.644 226.235 0 175.591 0 113.117zm113.117 104.158c57.525 0 104.158-46.633 104.158-104.158S170.642 8.959 113.117 8.96C55.592 8.96 8.959 55.593 8.96 113.117c0 57.525 46.633 104.158 104.157 104.158z" data-fill-palette-color="accent"/></g><g transform="translate(48.663 48.663)"><svg width="128.909" height="128.908" viewBox="0 0 128.909 128.908"><g><svg xmlns="http://www.w3.org/2000/svg" xmlns:xlink="http://www.w3.org/1999/xlink" xml:space="preserve" width="128.909" height="128.908" class="icon-s-0" data-fill-palette-color="accent" viewBox="4.537 5.001 90 89.999"><path fill="#c56e33" d="m86.229 50.001.721-.723c10.115-10.115 10.116-26.574 0-36.69s-26.575-10.116-36.691 0l-.722.721-.721-.721C38.7 2.472 22.24 2.472 12.124 12.588s-10.116 26.575.001 36.69l.721.723-.721.721C2.008 60.838 2.008 77.296 12.124 87.414c10.117 10.115 26.577 10.115 36.692 0l.721-.722.722.722c10.116 10.115 26.575 10.115 36.691 0 10.116-10.118 10.115-26.576 0-36.692l-.721-.721zM53.453 15.783c8.354-8.354 21.947-8.354 30.3 0 8.354 8.354 8.354 21.948.001 30.301L59.431 70.407c-1.862 1.863-2.316 4.073-.109 6.306l.831.806c4.66 4.66 12.242 4.66 16.902 0s4.66-12.243.001-16.903l-.722-.722 1.751-1.75.722.722c5.627 5.625 5.627 14.78 0 20.405-5.625 5.625-14.781 5.625-20.406 0 0 0-.354-.298-.833-.78-.44-.447-4.823-4.899.112-9.835l24.322-24.323c7.389-7.388 7.389-19.409 0-26.798-7.388-7.387-19.408-7.387-26.796.001l-.723.721-1.752-1.751.722-.723zM73.86 74.325c-2.899 2.897-7.615 2.897-10.514 0l-.721-.722L73.138 63.09l.722.72c2.898 2.9 2.898 7.615 0 10.515zM15.319 15.783c8.354-8.354 21.948-8.354 30.302 0l24.321 24.321-1.752 1.754-24.322-24.323c-7.389-7.388-19.408-7.388-26.796 0-7.389 7.388-7.389 19.409 0 26.797l.721.722-1.752 1.752-.722-.721c-8.354-8.354-8.354-21.947 0-30.302zm47.307 10.615.721-.722c2.898-2.898 7.614-2.898 10.514 0 2.897 2.898 2.897 7.613 0 10.514l-.722.721-10.513-10.513zM24.337 58.297l-2.319 2.318c-4.661 4.66-4.66 12.243 0 16.903 4.659 4.66 12.242 4.66 16.902 0l.722-.722c3.561-3.559-.725-7.104-2.787-9.167l-1.343-1.354-6.383-6.383 1.752-1.75 8.49 8.489.67.672c6.242 6.239 1.837 10.76 1.353 11.244l-.722.722c-5.626 5.628-14.78 5.625-20.407 0-5.625-5.625-5.625-14.78.001-20.407L44.59 34.54l1.751 1.754L34.23 48.403l-9.893 9.894zm1.597 4.794 10.513 10.51-.722.723c-2.899 2.897-7.614 2.899-10.512 0-2.898-2.898-2.898-7.615 0-10.513l.721-.72zm23.602-23.603 10.512 10.513-10.512 10.511-10.513-10.511 10.513-10.513zM38.921 22.483c-4.66-4.662-12.243-4.66-16.902 0-4.66 4.658-4.661 12.242 0 16.902l.721.722-1.752 1.751-.722-.721c-5.626-5.627-5.625-14.781 0-20.408 5.627-5.625 14.781-5.626 20.407 0l24.323 24.323-1.752 1.752-24.323-24.321zm-2.474 3.916L25.934 36.911l-.721-.721c-2.899-2.899-2.899-7.615-.001-10.514 2.898-2.898 7.614-2.898 10.513.002l.722.721zm47.306 57.819c-8.353 8.354-21.946 8.354-30.3 0l-.909-.813c-.198-.199-1.873-1.863-3.107-4.434-1.151 2.43-2.679 4.096-3.094 4.525l-.722.722c-8.354 8.354-21.948 8.354-30.302 0s-8.354-21.947 0-30.303l24.323-24.321 1.752 1.753-24.322 24.322c-7.389 7.389-7.389 19.409 0 26.797 7.388 7.389 19.408 7.389 26.796 0l.761-.762c1.918-1.991 3.366-5.064 3.473-8.229 0-.093.007-.186.009-.277.022-2.474-.788-4.981-2.86-7.055l-3.86-3.86-.371-.395-6.942-6.941 1.752-1.753 9.693 9.693.813.828c1.438 1.439 2.459 2.871 3.161 4.269.705-1.348 1.705-2.73 3.102-4.128l.134-.148 24.324-24.322c4.659-4.66 4.659-12.244-.001-16.904-4.659-4.66-12.242-4.66-16.902 0l-.722.723-1.751-1.752.721-.723c5.625-5.625 14.781-5.625 20.406 0 5.627 5.627 5.627 14.781 0 20.406L54.482 65.46l-.767.77c-4.868 4.868-2.956 11.839.604 15.397l.886.839c7.388 7.389 19.408 7.389 26.796 0 7.389-7.388 7.389-19.408 0-26.797l-.722-.722 1.752-1.753.722.723c8.354 8.354 8.354 21.946 0 30.301z" data-fill-palette-color="accent"/></svg></g></svg></g></svg></g></svg></g></svg></g></svg></g></svg></g></svg>